<svg xmlns="http://www.w3.org/2000/svg" xmlns:xlink="http://www.w3.org/1999/xlink" width="350" zoomAndPan="magnify" viewBox="0 0 262.5 74.999997" height="100" preserveAspectRatio="xMidYMid meet" version="1.0"><defs><g/><clipPath id="b2a0dc8ef2"><path d="M 0 4.148438 L 62.203125 4.148438 L 62.203125 66.351562 L 0 66.351562 Z M 0 4.148438 " clip-rule="nonzero"/></clipPath><clipPath id="3dc43cccbc"><path d="M 46.652344 10.371094 L 55.984375 10.371094 L 55.984375 60.132812 L 46.652344 60.132812 Z M 46.652344 10.371094 " clip-rule="nonzero"/></clipPath><clipPath id="03cb71a3d6"><path d="M 6 10 L 56 10 L 56 61 L 6 61 Z M 6 10 " clip-rule="nonzero"/></clipPath><clipPath id="a8cb577263"><path d="M 55.976562 16.96875 L 12.8125 60.136719 L 6.214844 53.539062 L 49.378906 10.371094 Z M 55.976562 16.96875 " clip-rule="nonzero"/></clipPath><clipPath id="8cfbee0bd9"><path d="M 6.21875 10.371094 L 55.984375 10.371094 L 55.984375 19.699219 L 6.21875 19.699219 Z M 6.21875 10.371094 " clip-rule="nonzero"/></clipPath></defs><g clip-path="url(#b2a0dc8ef2)"><path fill="#cc2229" d="M 0 4.148438 L 62.203125 4.148438 L 62.203125 66.351562 L 0 66.351562 Z M 0 4.148438 " fill-opacity="1" fill-rule="nonzero"/></g><g clip-path="url(#3dc43cccbc)"><path fill="#ffffff" d="M 55.984375 10.371094 L 55.984375 60.121094 L 46.652344 60.121094 L 46.652344 10.371094 Z M 55.984375 10.371094 " fill-opacity="1" fill-rule="nonzero"/></g><g clip-path="url(#03cb71a3d6)"><g clip-path="url(#a8cb577263)"><path fill="#ffffff" d="M 55.976562 16.96875 L 12.808594 60.140625 L 6.210938 53.539062 L 49.378906 10.371094 Z M 55.976562 16.96875 " fill-opacity="1" fill-rule="nonzero"/></g></g><g clip-path="url(#8cfbee0bd9)"><path fill="#ffffff" d="M 55.984375 19.699219 L 6.234375 19.699219 L 6.234375 10.371094 L 55.984375 10.371094 Z M 55.984375 19.699219 " fill-opacity="1" fill-rule="nonzero"/></g><g fill="#000000" fill-opacity="1"><g transform="translate(84.623996, 55.245289)"><g><path d="M 9.4375 -12.484375 C 10.8125 -9.898438 12.390625 -7.992188 14.171875 -6.765625 C 15.953125 -5.535156 18.242188 -4.921875 21.046875 -4.921875 C 24.535156 -4.921875 27.082031 -5.40625 28.6875 -6.375 C 30.289062 -7.34375 31.09375 -8.671875 31.09375 -10.359375 C 31.09375 -11.742188 30.453125 -12.953125 29.171875 -13.984375 C 27.898438 -15.023438 25.828125 -15.648438 22.953125 -15.859375 L 19.28125 -16.125 C 15.101562 -16.394531 11.992188 -17.4375 9.953125 -19.25 C 7.910156 -21.0625 6.890625 -23.316406 6.890625 -26.015625 C 6.890625 -27.953125 7.347656 -29.6875 8.265625 -31.21875 C 9.179688 -32.757812 10.675781 -33.988281 12.75 -34.90625 C 14.820312 -35.820312 17.585938 -36.28125 21.046875 -36.28125 C 23.910156 -36.28125 26.257812 -35.929688 28.09375 -35.234375 C 29.925781 -34.546875 31.4375 -33.550781 32.625 -32.25 C 33.8125 -30.957031 34.835938 -29.398438 35.703125 -27.578125 L 31.203125 -24.921875 C 30.441406 -27.035156 29.222656 -28.632812 27.546875 -29.71875 C 25.867188 -30.8125 23.703125 -31.359375 21.046875 -31.359375 C 18.003906 -31.359375 15.75 -30.890625 14.28125 -29.953125 C 12.8125 -29.023438 12.078125 -27.695312 12.078125 -25.96875 C 12.078125 -24.445312 12.75 -23.253906 14.09375 -22.390625 C 15.445312 -21.523438 17.175781 -21.003906 19.28125 -20.828125 L 23.015625 -20.53125 C 27.191406 -20.175781 30.453125 -19.1875 32.796875 -17.5625 C 35.148438 -15.945312 36.328125 -13.753906 36.328125 -10.984375 C 36.328125 -7.429688 35.003906 -4.710938 32.359375 -2.828125 C 29.722656 -0.941406 25.953125 0 21.046875 0 C 18.210938 0 15.828125 -0.359375 13.890625 -1.078125 C 11.953125 -1.804688 10.300781 -2.878906 8.9375 -4.296875 C 7.570312 -5.710938 6.320312 -7.441406 5.1875 -9.484375 Z M 9.4375 -12.484375 "/></g></g></g><g fill="#000000" fill-opacity="1"><g transform="translate(123.549936, 55.245289)"><g><path d="M 22.59375 -8.03125 L 27.46875 -5.953125 C 26.332031 -3.847656 24.734375 -2.21875 22.671875 -1.0625 C 20.617188 0.09375 18.125 0.671875 15.1875 0.671875 C 13.320312 0.671875 11.582031 0.300781 9.96875 -0.4375 C 8.363281 -1.1875 6.972656 -2.207031 5.796875 -3.5 C 4.628906 -4.789062 3.71875 -6.253906 3.0625 -7.890625 C 2.40625 -9.535156 2.078125 -11.242188 2.078125 -13.015625 C 2.078125 -14.734375 2.40625 -16.40625 3.0625 -18.03125 C 3.71875 -19.65625 4.628906 -21.109375 5.796875 -22.390625 C 6.972656 -23.671875 8.363281 -24.691406 9.96875 -25.453125 C 11.582031 -26.210938 13.320312 -26.59375 15.1875 -26.59375 C 17.425781 -26.59375 19.492188 -26.003906 21.390625 -24.828125 C 23.296875 -23.648438 24.765625 -21.90625 25.796875 -19.59375 C 26.835938 -17.28125 27.1875 -14.429688 26.84375 -11.046875 L 7.046875 -11.046875 C 7.359375 -8.660156 8.210938 -6.910156 9.609375 -5.796875 C 11.015625 -4.691406 12.875 -4.140625 15.1875 -4.140625 C 17.332031 -4.140625 18.945312 -4.453125 20.03125 -5.078125 C 21.125 -5.703125 21.976562 -6.6875 22.59375 -8.03125 Z M 15.1875 -21.8125 C 12.695312 -21.8125 10.796875 -21.164062 9.484375 -19.875 C 8.171875 -18.582031 7.375 -16.929688 7.09375 -14.921875 L 22.28125 -14.921875 C 21.769531 -19.515625 19.40625 -21.8125 15.1875 -21.8125 Z M 15.1875 -21.8125 "/></g></g></g><g fill="#000000" fill-opacity="1"><g transform="translate(150.502569, 55.245289)"><g><path d="M 3.109375 0 L 3.109375 -25.921875 L 7.875 -25.921875 L 7.875 -20.109375 C 8.632812 -22.253906 9.84375 -23.867188 11.5 -24.953125 C 13.164062 -26.046875 14.878906 -26.59375 16.640625 -26.59375 C 18.847656 -26.59375 20.675781 -26.21875 22.125 -25.46875 C 23.582031 -24.726562 24.664062 -23.453125 25.375 -21.640625 C 26.082031 -19.828125 26.4375 -17.3125 26.4375 -14.09375 L 26.4375 0 L 21.453125 0 L 21.453125 -14.09375 C 21.453125 -17.03125 20.914062 -19.09375 19.84375 -20.28125 C 18.78125 -21.476562 17.3125 -22.09375 15.4375 -22.125 C 13.019531 -22.125 11.15625 -21.40625 9.84375 -19.96875 C 8.53125 -18.539062 7.875 -16.582031 7.875 -14.09375 L 7.875 0 Z M 3.109375 0 "/></g></g></g><g fill="#000000" fill-opacity="1"><g transform="translate(177.299711, 55.245289)"><g><path d="M 24.359375 -36.28125 L 29.078125 -36.28125 L 29.078125 0 L 24.25 0 L 24.25 -5.34375 C 23.53125 -3.539062 22.414062 -2.085938 20.90625 -0.984375 C 19.40625 0.117188 17.429688 0.671875 14.984375 0.671875 C 12.628906 0.671875 10.535156 0.117188 8.703125 -0.984375 C 6.867188 -2.085938 5.429688 -3.664062 4.390625 -5.71875 C 3.359375 -7.78125 2.84375 -10.210938 2.84375 -13.015625 C 2.84375 -15.773438 3.359375 -18.164062 4.390625 -20.1875 C 5.429688 -22.207031 6.867188 -23.78125 8.703125 -24.90625 C 10.535156 -26.03125 12.628906 -26.59375 14.984375 -26.59375 C 17.460938 -26.59375 19.453125 -26.035156 20.953125 -24.921875 C 22.460938 -23.816406 23.582031 -22.351562 24.3125 -20.53125 Z M 16.171875 -4.453125 C 18.617188 -4.453125 20.550781 -5.097656 21.96875 -6.390625 C 23.382812 -7.691406 24.164062 -9.640625 24.3125 -12.234375 L 24.3125 -13.53125 C 24.164062 -15.875 23.382812 -17.796875 21.96875 -19.296875 C 20.550781 -20.804688 18.617188 -21.5625 16.171875 -21.5625 C 13.753906 -21.5625 11.757812 -20.789062 10.1875 -19.25 C 8.613281 -17.71875 7.828125 -15.617188 7.828125 -12.953125 C 7.828125 -9.953125 8.613281 -7.785156 10.1875 -6.453125 C 11.757812 -5.117188 13.753906 -4.453125 16.171875 -4.453125 Z M 16.171875 -4.453125 "/></g></g></g><g fill="#000000" fill-opacity="1"><g transform="translate(206.895812, 55.245289)"><g><path d="M 16.375 0.671875 C 14.40625 0.671875 12.59375 0.300781 10.9375 -0.4375 C 9.28125 -1.1875 7.84375 -2.207031 6.625 -3.5 C 5.414062 -4.789062 4.484375 -6.253906 3.828125 -7.890625 C 3.171875 -9.535156 2.84375 -11.242188 2.84375 -13.015625 C 2.84375 -14.734375 3.171875 -16.40625 3.828125 -18.03125 C 4.484375 -19.65625 5.414062 -21.109375 6.625 -22.390625 C 7.84375 -23.671875 9.28125 -24.691406 10.9375 -25.453125 C 12.59375 -26.210938 14.40625 -26.59375 16.375 -26.59375 C 18.34375 -26.59375 20.144531 -26.210938 21.78125 -25.453125 C 23.425781 -24.691406 24.84375 -23.671875 26.03125 -22.390625 C 27.226562 -21.109375 28.15625 -19.65625 28.8125 -18.03125 C 29.46875 -16.40625 29.796875 -14.734375 29.796875 -13.015625 C 29.796875 -11.242188 29.46875 -9.535156 28.8125 -7.890625 C 28.15625 -6.253906 27.226562 -4.789062 26.03125 -3.5 C 24.84375 -2.207031 23.425781 -1.1875 21.78125 -0.4375 C 20.144531 0.300781 18.34375 0.671875 16.375 0.671875 Z M 16.328125 -4.25 C 21.992188 -4.25 24.828125 -7.148438 24.828125 -12.953125 C 24.828125 -15.472656 24.125 -17.554688 22.71875 -19.203125 C 21.320312 -20.847656 19.191406 -21.671875 16.328125 -21.671875 C 13.554688 -21.671875 11.445312 -20.847656 10 -19.203125 C 8.550781 -17.554688 7.828125 -15.472656 7.828125 -12.953125 C 7.828125 -10.117188 8.550781 -7.957031 10 -6.46875 C 11.445312 -4.988281 13.554688 -4.25 16.328125 -4.25 Z M 16.328125 -4.25 "/></g></g></g></svg>